<svg xmlns="http://www.w3.org/2000/svg" width="324" height="60" viewBox="0 0 324 60" fill="none">
    <path d="M52.6775 58.1646V58.8794H36.6221V58.1646L40.5152 51.4893L34.8736 37.82H14.3745L8.9744 51.4893L13.9784 58.1646V58.8794H0V58.1646L5.24553 51.4893L22.6437 8.02769L20.2576 2.14458L27.5705 0L48.2241 51.4797L52.6775 58.1646ZM33.8496 35.2117L24.3922 12.3265L15.4178 35.2117H33.8496Z" fill="#232323"></path>
    <path d="M50.2045 7.71856L45.6738 1.20753V0.492683H62.3571V1.20753L58.2225 7.71856L73.9495 48.3207L88.3336 7.71856L83.8802 1.20753V0.492683H96.1198V1.20753L91.5891 7.71856L72.684 60H70.2979L50.2045 7.71856Z" fill="#232323"></path>
    <path d="M141.649 58.1646V58.8794H125.603V58.1646L129.496 51.4893L123.855 37.82H103.355L97.9554 51.4893L102.959 58.1646V58.8794H88.981V58.1646L94.2265 51.4893L111.625 8.02769L109.239 2.14458L116.551 0L137.205 51.4797L141.649 58.1646ZM122.821 35.2117L113.364 12.3265L104.389 35.2117H122.821Z" fill="#232323"></path>
    <path d="M148.082 58.1646L152.294 51.5666V7.63162L147.841 1.35243V0.483013H163.887V1.35243L159.433 7.63162V56.3291H170.243C177.875 56.3291 181.362 50.3687 181.922 46.9586L189.071 52.2814C188.115 55.7012 185.574 58.8794 170.716 58.8794H148.073V58.1646H148.082Z" fill="#232323"></path>
    <path d="M195.273 58.0873L199.726 51.4893V7.63162L196.625 1.27516V0.483013H209.889V1.27516L206.875 7.63162V51.4893L211.241 58.0873V58.8794H195.273V58.0873Z" fill="#232323"></path>
    <path d="M228.234 12.0077V51.4893L233.161 58.1646V58.8794H219.81V58.1646L224.737 51.4893V7.88279L219.81 1.20753V0.492683H228.784L262.083 45.4613V7.71856L257.321 1.20753V0.492683H270.353V1.20753L265.59 7.71856V59.3624H262.731L228.234 12.0077Z" fill="#232323"></path>
    <path d="M323.252 54.909C318.963 58.4061 315.785 59.1209 306.646 58.8794H278.284V58.1646L283.288 51.5666V7.88279L277.173 1.20753V0.492683H316.741L319.601 13.2829H318.326L308.395 2.87877H290.436V25.3582H303.545L309.264 21.3106H310.056V33.3859H309.264L303.545 27.9085H290.436V56.3484H304.183C311.815 56.3484 315.147 50.5522 316.104 47.2098L323.252 54.909Z" fill="#232323"></path>
</svg>
