<svg xmlns="http://www.w3.org/2000/svg" width="22" height="22" viewBox="0 0 22 22" fill="none">
    <path fill-rule="evenodd" clip-rule="evenodd" d="M11 9.52344C12.5645 9.52344 13.8338 8.25505 13.8338 6.69055C13.8338 5.12604 12.5654 3.85676 11 3.85676C9.43547 3.85676 8.16708 5.12516 8.16708 6.69055C8.16708 8.25505 9.43547 9.52344 11 9.52344ZM11 10.3402C8.98469 10.3402 7.35035 8.70495 7.35035 6.68966C7.35035 4.67437 8.98557 3.04092 11.0009 3.04092C13.0162 3.04092 14.6496 4.67525 14.6496 6.69055C14.6496 8.70584 13.0153 10.3402 11 10.3402ZM17.9298 17.8701C17.9412 18.0946 17.768 18.2855 17.5426 18.297C17.3181 18.3085 17.1254 18.1344 17.1157 17.9099C16.9566 14.6589 14.2678 12.0921 11 12.0921C7.71364 12.0921 5.01598 14.6881 4.88339 17.9612C4.87455 18.1865 4.68363 18.3616 4.45912 18.3527C4.23372 18.3439 4.05871 18.1538 4.06667 17.9284C4.21693 14.2178 7.27522 11.2753 11 11.2753C14.7035 11.2753 17.7503 14.1842 17.9298 17.8692V17.8701Z" fill="#232323" stroke="#232323" stroke-width="0.6"></path>
    <path fill-rule="evenodd" clip-rule="evenodd" d="M10.9996 20.1833C16.0714 20.1833 20.1833 16.0714 20.1833 10.9996C20.1833 5.92774 16.0714 1.81584 10.9996 1.81584C5.92774 1.81584 1.81584 5.92863 1.81584 11.0004C1.81584 16.0723 5.92774 20.1842 10.9996 20.1842V20.1833ZM10.9996 21C5.47695 21 1 16.523 1 10.9996C1 5.47695 5.47695 1 10.9996 1C16.523 1 21 5.47695 21 10.9996C21 16.523 16.523 21 10.9996 21Z" fill="#232323" stroke="#232323" stroke-width="0.6"></path>
</svg>
