<svg width="79" height="15" viewBox="0 0 79 15" fill="none" xmlns="http://www.w3.org/2000/svg"> <path d="M7.5 0L9.48378 4.76957L14.6329 5.18237L10.7098 8.54293L11.9084 13.5676L7.5 10.875L3.09161 13.5676L4.29018 8.54293L0.367076 5.18237L5.51622 4.76957L7.5 0Z" fill="#62665E"></path> <path d="M23.5 0L25.4838 4.76957L30.6329 5.18237L26.7098 8.54293L27.9084 13.5676L23.5 10.875L19.0916 13.5676L20.2902 8.54293L16.3671 5.18237L21.5162 4.76957L23.5 0Z" fill="#62665E"></path> <path d="M39.5 0L41.4838 4.76957L46.6329 5.18237L42.7098 8.54293L43.9084 13.5676L39.5 10.875L35.0916 13.5676L36.2902 8.54293L32.3671 5.18237L37.5162 4.76957L39.5 0Z" fill="#62665E"></path> <path d="M55.5 0L57.4838 4.76957L62.6329 5.18237L58.7098 8.54293L59.9084 13.5676L55.5 10.875L51.0916 13.5676L52.2902 8.54293L48.3671 5.18237L53.5162 4.76957L55.5 0Z" fill="#62665E"></path> <path d="M71.5 0L73.4838 4.76957L78.6329 5.18237L74.7098 8.54293L75.9084 13.5676L71.5 10.875L67.0916 13.5676L68.2902 8.54293L64.3671 5.18237L69.5162 4.76957L71.5 0Z" fill="#62665E"></path> </svg>
